<svg width="62" height="62" viewBox="0 0 62 62" fill="none" xmlns="http://www.w3.org/2000/svg">
<g clip-path="url(#clip0_146_2359)">
<path d="M61.4093 33.028C61.4093 32.4486 61.4093 31.8692 61.4093 30.7103C61.4093 30.1308 61.4093 30.1308 61.4093 29.5514C61.4093 28.972 61.4093 28.972 61.4093 28.3925V27.8131V27.2336C61.4093 26.6542 61.4093 26.6542 61.4093 26.0748C61.4093 26.0748 61.4093 26.0748 61.4093 26.6542V26.0748V25.4953V24.9159V24.3364C61.4093 24.3364 61.4093 24.3364 61.4093 24.9159C61.4093 24.9159 61.4093 24.9159 61.4093 25.4953V24.9159V24.3364V23.757C61.4093 23.1776 60.8189 22.5981 60.8189 22.0187C59.6379 20.8598 59.0474 19.1215 57.8665 17.3832C57.276 15.6449 56.0951 14.486 54.9141 12.7477C54.9141 12.7477 54.9141 12.7477 54.9141 12.1682L54.3236 11.5888C54.3236 11.5888 54.3236 11.0093 53.7332 11.0093C53.7332 11.0093 53.7332 10.4299 53.1427 10.4299C53.1427 9.85047 52.5522 9.85047 52.5522 9.85047C52.5522 9.85047 52.5522 9.85047 51.9617 9.27103C51.9617 9.27103 51.9617 9.27103 51.3712 8.69159L50.7808 8.11215C50.7808 8.11215 50.7808 8.11215 50.1903 7.53271C50.1903 7.53271 50.1903 7.53271 49.5998 6.95327C49.5998 6.95327 49.5998 6.95327 49.0093 6.37383C49.0093 6.37383 48.4189 6.37383 48.4189 5.79439C48.4189 5.79439 47.8284 5.79439 47.8284 5.21495C47.8284 5.21495 47.2379 5.21495 47.2379 4.63551C48.4189 5.79439 47.8284 5.21495 47.8284 5.21495C47.2379 5.21495 46.6474 4.63551 46.6474 4.63551C46.6474 4.63551 46.057 4.63551 46.057 4.05607C46.057 4.05607 45.4665 4.05607 45.4665 3.47664C45.4665 3.47664 46.057 4.05607 46.6474 4.05607L47.2379 4.63551C46.6474 4.63551 46.6474 4.05607 46.057 4.05607C46.057 4.05607 45.4665 4.05607 45.4665 3.47664C45.4665 3.47664 44.876 3.47664 44.876 2.8972C44.876 2.8972 44.876 2.8972 45.4665 2.8972C43.1046 2.8972 41.3331 2.31776 38.9712 1.73832C38.3808 1.73832 37.7903 1.73832 37.7903 1.73832C36.0189 0.579439 34.2474 0.579439 33.0665 0C31.2951 0 29.5236 0 27.7522 0H27.1617H27.7522H28.3427C28.9331 0 29.5236 0 29.5236 0C30.1141 0 31.2951 0 31.8855 0H31.2951H30.7046H30.1141H29.5236H28.3427C28.9331 0 29.5236 0 30.1141 0H31.8855C32.476 0 32.476 0 33.0665 0H33.657H34.2474C34.8379 0 34.8379 0 35.4284 0H36.6093H37.1998C36.6093 0 36.6093 0 36.0189 0H35.4284C34.2474 0 33.657 0.579439 34.2474 0.579439C34.2474 0.579439 34.8379 0.579439 35.4284 1.15888C35.4284 1.15888 35.4284 1.15888 36.0189 1.15888H36.6093C37.1998 1.15888 37.1998 1.15888 37.7903 1.15888H38.3808H37.7903C37.1998 1.15888 36.6093 1.15888 36.6093 1.15888C36.0189 1.15888 36.0189 1.15888 35.4284 1.15888H34.8379C34.8379 1.15888 34.8379 1.15888 34.2474 1.15888C33.657 1.15888 34.2474 1.15888 34.2474 1.73832H34.8379C34.8379 1.73832 35.4284 1.73832 36.0189 1.73832C36.6093 1.73832 36.6093 1.73832 37.1998 1.73832C37.7903 1.73832 38.3808 1.73832 38.3808 1.73832C38.3808 4.63551 40.1522 5.21495 41.9236 5.79439C42.5141 5.79439 42.5141 6.37383 43.1046 6.37383C43.1046 6.37383 43.1046 6.37383 42.5141 6.37383C41.3331 5.21495 40.1522 4.63551 38.9712 4.63551C38.9712 4.63551 38.9712 4.63551 38.3808 4.63551C38.3808 4.63551 38.3808 4.63551 37.7903 4.63551C37.7903 4.63551 37.7903 4.63551 38.3808 4.63551C38.3808 4.63551 38.3808 4.63551 38.9712 4.63551C39.5617 4.63551 40.1522 5.21495 40.7427 5.21495C43.1046 5.79439 44.876 6.95327 46.057 7.53271C46.057 7.53271 45.4665 7.53271 45.4665 6.95327C45.4665 6.95327 44.876 6.95327 44.876 6.37383H44.2855H43.6951C43.6951 6.37383 43.1046 6.37383 43.1046 5.79439C42.5141 5.79439 42.5141 5.79439 42.5141 5.21495H41.9236C41.3331 5.79439 41.3331 5.79439 41.3331 5.79439C41.3331 5.79439 41.3331 5.79439 40.7427 5.79439C40.7427 5.79439 40.7427 5.79439 40.1522 5.79439H39.5617C39.5617 5.79439 39.5617 5.79439 38.9712 5.79439H38.3808H37.7903H37.1998C37.1998 5.79439 37.1998 5.79439 36.6093 5.79439H36.0189H35.4284C35.4284 5.79439 34.8379 5.79439 34.2474 5.79439C34.2474 5.79439 34.2474 5.79439 34.8379 5.79439C34.8379 5.79439 34.8379 5.79439 34.2474 5.79439C34.2474 5.79439 34.2474 5.79439 33.0665 5.21495H32.476C32.476 5.21495 32.476 5.21495 31.8855 5.21495C31.8855 5.21495 31.8855 5.21495 32.476 5.21495C32.476 5.21495 32.476 5.21495 33.0665 5.21495C33.0665 5.21495 33.0665 5.21495 33.657 5.79439C33.657 5.79439 33.657 5.79439 34.2474 5.79439C34.2474 5.79439 34.8379 5.79439 35.4284 5.79439C35.4284 5.79439 35.4284 5.79439 36.0189 5.79439C36.0189 5.79439 36.0189 5.79439 36.6093 5.79439C36.6093 5.79439 37.1998 5.79439 37.7903 5.79439C37.7903 5.79439 37.7903 5.79439 38.3808 5.79439C38.9712 5.79439 38.9712 5.79439 38.9712 6.37383H38.3808C37.7903 6.37383 37.7903 6.37383 38.3808 6.37383C37.7903 6.37383 37.7903 6.37383 37.7903 6.95327H37.1998C36.6093 6.95327 36.6093 6.95327 36.0189 6.95327C36.0189 7.53271 35.4284 7.53271 35.4284 7.53271H34.8379C33.0665 6.95327 31.2951 6.37383 30.1141 6.37383H30.7046C30.7046 6.37383 30.7046 6.37383 31.2951 6.37383C31.2951 6.37383 31.2951 6.37383 31.8855 6.37383H32.476H33.0665C33.0665 6.37383 33.0665 6.37383 33.657 6.37383C33.657 6.37383 33.657 6.37383 34.2474 6.37383H34.8379H35.4284H36.0189C34.2474 7.53271 32.476 7.53271 31.2951 6.95327C30.7046 6.95327 30.7046 6.95327 30.1141 6.95327C29.5236 6.95327 29.5236 6.95327 28.9331 6.95327C28.3427 6.95327 28.3427 6.95327 27.7522 6.95327C27.1617 6.95327 27.1617 6.95327 26.5712 6.95327L27.1617 6.37383C25.9808 6.37383 24.2093 6.95327 23.0284 7.53271H22.4379H21.8474C21.8474 7.53271 21.8474 7.53271 21.257 7.53271C21.257 7.53271 21.257 7.53271 20.6665 7.53271C21.257 7.53271 21.8474 6.95327 22.4379 6.95327C23.6189 6.95327 24.7998 6.95327 26.5712 6.37383H27.1617C27.7522 6.37383 27.7522 6.37383 28.3427 6.37383C28.9331 6.37383 28.9331 6.37383 29.5236 6.37383H28.9331H28.3427H28.9331C28.9331 6.37383 28.9331 6.37383 29.5236 5.79439C28.9331 5.79439 29.5236 5.79439 30.7046 5.79439H31.2951C31.2951 5.79439 31.2951 5.79439 30.7046 5.79439H30.1141H29.5236C28.9331 5.79439 28.9331 5.79439 28.3427 5.79439H27.1617C26.5712 5.79439 26.5712 5.79439 25.9808 5.79439H25.3903H24.7998H24.2093H23.6189C23.6189 5.79439 23.6189 5.79439 24.2093 5.79439C24.7998 5.79439 26.5712 5.79439 28.3427 5.21495V4.63551V4.05607C26.5712 4.63551 24.7998 5.21495 23.0284 5.79439C23.0284 5.79439 23.6189 5.79439 23.0284 5.79439H22.4379C20.6665 6.37383 18.8951 6.95327 17.1236 8.11215H16.5331L17.1236 7.53271L17.7141 6.95327C17.7141 6.95327 18.3046 6.95327 18.3046 6.37383L18.8951 5.79439H19.4855C20.076 5.79439 20.6665 5.21495 21.257 5.21495C23.6189 4.05607 25.9808 3.47664 28.3427 3.47664H28.9331C28.9331 3.47664 28.9331 3.47664 29.5236 3.47664H30.1141C30.7046 3.47664 30.7046 3.47664 30.7046 3.47664H30.1141H29.5236C29.5236 3.47664 28.9331 3.47664 28.3427 3.47664H27.7522C27.7522 3.47664 27.7522 3.47664 27.1617 3.47664H26.5712H25.9808H25.3903C22.4379 3.47664 21.257 4.05607 20.076 4.63551C20.076 4.63551 19.4855 4.63551 19.4855 5.21495C19.4855 5.21495 18.8951 5.21495 18.8951 5.79439C18.3046 5.21495 18.3046 5.21495 17.7141 5.79439H17.1236C17.1236 5.79439 17.1236 5.79439 16.5331 5.79439H15.9427C15.3522 5.79439 15.3522 5.79439 14.7617 6.37383C14.1712 6.37383 14.1712 6.95327 13.5808 6.95327C12.9903 6.95327 12.9903 7.53271 12.3998 7.53271C12.3998 7.53271 11.8093 7.53271 11.8093 8.11215C11.8093 8.11215 11.2189 8.11215 11.2189 8.69159C11.8093 8.69159 11.2189 9.27103 11.2189 9.27103C11.2189 9.27103 10.6284 9.27103 10.6284 9.85047H11.2189C10.6284 9.85047 10.6284 10.4299 10.0379 10.4299V11.0093V11.5888L8.85696 12.1682L8.26648 12.7477C8.26648 12.7477 8.26648 12.7477 7.676 13.3271C7.676 13.3271 7.67601 13.9065 7.08553 13.9065C7.08553 13.9065 7.08553 14.486 6.49505 14.486C6.49505 14.486 6.49505 14.486 6.49505 15.0654V15.6449V16.2243V16.8037C5.3141 17.9626 4.13315 19.7009 3.54267 20.8598C3.54267 20.8598 3.54267 20.2804 4.13315 20.2804L4.72362 19.7009C4.72362 19.7009 4.72362 19.7009 4.72362 20.2804C4.72362 20.8598 4.13315 21.4393 4.13315 22.5981V23.1776V23.757V24.3364V23.757V23.1776V22.5981V22.0187V21.4393V20.8598C4.13315 18.5421 4.72362 17.3832 5.3141 15.6449L5.90458 15.0654C5.90458 15.0654 5.90458 14.486 6.49505 14.486V13.9065C7.08553 13.3271 7.676 12.7477 8.26648 12.1682C8.26648 12.1682 8.26648 12.1682 8.85696 11.5888C9.44743 10.4299 10.6284 9.27103 11.8093 8.11215C11.2189 8.11215 11.2189 8.69159 10.6284 8.69159C10.6284 8.69159 10.6284 8.69159 10.0379 9.27103C8.26648 11.0093 7.08553 12.1682 6.49505 13.3271V12.7477C5.3141 14.486 4.13315 16.2243 3.54267 18.5421C3.54267 19.1215 3.54267 19.1215 2.9522 19.7009V20.2804V20.8598C2.36172 22.5981 1.77124 23.1776 1.77124 23.757C1.77124 24.3364 1.77124 24.3364 1.77124 24.9159C1.77124 25.4953 1.77124 25.4953 1.77124 26.0748C1.77124 26.6542 1.77124 26.6542 1.77124 27.2336C1.77124 27.8131 1.77124 27.8131 1.77124 28.3925V28.972V29.5514C1.77124 30.1308 1.77124 30.1308 1.77124 30.7103C1.77124 31.2897 1.77124 31.2897 1.77124 31.8692C1.77124 31.8692 1.77124 31.8692 1.77124 32.4486V33.028V33.6075C1.77124 33.028 1.77124 33.028 1.77124 32.4486V31.8692C1.77124 31.2897 1.77124 30.1308 1.77124 29.5514C1.77124 27.8131 2.36172 26.6542 2.9522 24.9159C3.54267 23.1776 3.54267 21.4393 4.72362 19.7009C2.36172 20.8598 1.77124 22.5981 1.18077 24.9159C0.59029 28.3925 0.59029 31.2897 1.18077 34.7664V35.3458C0.59029 34.1869 -0.000185966 32.4486 -0.000185966 30.7103C-0.000185966 28.972 -0.000185907 27.2336 0.59029 25.4953C1.77124 21.4393 2.9522 17.3832 4.72362 13.9065L4.13315 14.486C4.13315 14.486 4.13315 14.486 4.13315 15.0654C4.13315 15.0654 4.13315 15.0654 4.13315 15.6449C4.13315 16.2243 3.54267 16.2243 3.54267 16.8037V17.3832C2.36172 17.9626 2.36172 19.1215 1.77124 19.7009C1.77124 20.2804 1.77124 20.2804 1.18077 20.8598C1.18077 21.4393 1.18077 21.4393 0.59029 22.0187C-1.18114 27.8131 -1.18114 33.6075 0.59029 38.243V38.8224C0.59029 39.4019 0.59029 39.9813 1.18077 41.1402C1.18077 41.7196 1.18077 41.7196 1.18077 42.2991V42.8785V43.4579C1.18077 44.0374 1.77124 44.6168 1.77124 44.6168C1.77124 45.1963 2.36172 45.1963 2.36172 45.7757C2.36172 45.1963 1.77124 45.1963 1.77124 44.6168V44.0374V43.4579V42.8785V42.2991V41.7196C1.77124 42.2991 1.77124 42.2991 2.36172 42.8785C2.36172 43.4579 2.36172 43.4579 2.9522 44.0374L3.54267 45.1963L2.9522 46.3551V46.9346C2.9522 46.9346 2.9522 47.514 3.54267 47.514C3.54267 47.514 3.54267 48.0935 4.13315 48.0935C4.13315 48.0935 4.13315 48.6729 4.72362 48.6729C4.72362 48.6729 4.72362 49.2523 5.3141 49.2523L5.90458 49.8318C5.3141 50.4112 5.90458 50.9907 6.49505 51.5701C7.08553 52.729 8.26648 53.3084 9.44743 54.4673L8.85696 53.8878L7.676 53.3084C7.676 52.729 7.08553 52.1495 6.49505 52.1495V52.729C8.26648 53.8878 10.0379 55.6262 11.8093 56.785L12.3998 57.3645L12.9903 57.9439C12.9903 57.9439 12.9903 57.9439 12.3998 57.3645L12.9903 57.9439L13.5808 58.5234C14.1712 58.5234 14.7617 59.1028 15.3522 59.1028C17.1236 59.6822 18.8951 60.2617 20.6665 60.8411C23.6189 61.4206 27.1617 61.4206 29.5236 61.4206C30.1141 61.4206 30.7046 61.4206 31.2951 60.8411C31.8855 60.8411 31.8855 60.8411 32.476 60.8411C33.0665 60.8411 33.0665 60.8411 33.657 60.8411H34.2474C34.2474 60.8411 34.2474 60.8411 34.8379 60.8411C37.1998 60.2617 39.5617 59.6822 41.9236 58.5234H42.5141H43.1046C43.6951 58.5234 43.6951 58.5234 44.2855 57.9439C46.6474 56.785 47.2379 56.2056 48.4189 55.6262L49.0093 55.0467L49.5998 54.4673C49.5998 54.4673 49.5998 54.4673 50.1903 54.4673C50.1903 54.4673 50.1903 54.4673 50.7808 53.8878L51.3712 53.3084C51.9617 53.3084 52.5522 52.729 53.1427 52.1495C53.1427 52.1495 53.7332 52.1495 53.7332 51.5701L54.3236 50.9907C55.5046 49.2523 56.6855 48.0935 57.276 46.3551C57.276 46.3551 57.276 46.9346 56.6855 46.9346C56.6855 46.9346 56.6855 47.514 56.0951 47.514C56.0951 47.514 56.0951 48.0935 55.5046 48.0935C55.5046 48.0935 55.5046 48.6729 54.9141 48.6729L55.5046 48.0935L56.0951 47.514C56.0951 47.514 56.0951 46.9346 56.6855 46.9346C56.6855 46.9346 56.6855 46.3551 57.276 46.3551C57.8665 44.6168 58.457 43.4579 59.0474 42.8785V42.2991C59.6379 40.5607 60.2284 38.8224 60.8189 36.5047C60.8189 35.9252 60.8189 35.3458 61.4093 34.7664C61.4093 34.1869 61.4093 33.6075 61.4093 33.028C61.9998 32.4486 61.9998 31.8692 61.9998 31.8692C61.4093 32.4486 61.4093 32.4486 61.4093 33.028ZM36.6093 5.21495C36.6093 5.21495 37.1998 5.21495 36.6093 5.21495C37.1998 5.21495 37.1998 5.21495 36.6093 5.21495ZM50.1903 11.5888C50.7808 11.5888 51.3712 12.1682 51.3712 12.7477L51.9617 13.3271L52.5522 13.9065C53.7331 15.6449 54.9141 17.3832 56.0951 19.1215C56.0951 19.1215 56.0951 18.5421 55.5046 18.5421L54.9141 17.9626C54.3236 16.2243 53.1427 14.486 51.9617 13.3271L51.3712 12.7477C50.7808 12.1682 50.1903 11.5888 50.1903 11.5888C49.5998 11.0093 49.0093 10.4299 48.4189 9.85047C49.0093 10.4299 49.5998 11.0093 50.1903 11.5888ZM38.3808 9.27103C37.7903 9.27103 37.7903 9.27103 38.3808 9.27103V9.27103ZM9.44743 22.5981C8.85696 23.1776 8.85696 24.3364 8.26648 25.4953C7.676 26.6542 7.676 27.8131 7.676 29.5514C7.676 30.1308 7.676 31.2897 7.676 31.8692C7.676 30.1308 7.676 28.972 7.676 27.2336C7.676 24.9159 8.26648 23.1776 9.44743 21.4393C10.0379 20.2804 10.6284 19.7009 11.2189 19.1215L11.8093 18.5421L11.2189 19.1215C10.6284 19.7009 10.0379 20.8598 9.44743 21.4393C9.44743 22.0187 9.44743 22.0187 9.44743 22.5981ZM58.457 20.2804C58.457 20.8598 58.457 20.8598 58.457 20.8598C58.457 21.4393 58.457 21.4393 58.457 22.0187C58.457 21.4393 58.457 20.8598 58.457 20.2804C58.457 20.8598 58.457 20.2804 58.457 20.2804C57.8665 19.1215 56.6855 17.3832 55.5046 15.6449C54.9141 13.9065 53.7332 12.1682 51.9617 11.0093C51.3712 10.4299 50.7808 9.27103 49.5998 8.69159C49.5998 8.69159 49.5998 8.69159 50.1903 9.27103C50.7808 9.27103 50.7808 9.85047 51.3712 9.85047C53.1427 11.5888 54.3236 12.7477 54.9141 14.486C56.0951 16.2243 57.276 17.9626 58.457 20.2804ZM24.2093 8.11215C24.7998 8.11215 24.7998 8.11215 24.2093 8.11215C24.7998 8.11215 24.7998 8.11215 24.2093 8.11215C24.7998 8.11215 24.7998 8.11215 24.7998 8.11215H25.3903C25.3903 8.11215 25.3903 8.11215 25.9808 7.53271C27.1617 7.53271 27.7522 7.53271 28.9331 7.53271H29.5236C30.1141 7.53271 30.1141 7.53271 30.7046 7.53271C31.2951 7.53271 31.2951 7.53271 31.8855 7.53271H32.476C33.657 7.53271 34.2474 7.53271 35.4284 8.11215C35.4284 8.11215 36.0189 8.69159 37.1998 9.27103H36.6093H36.0189H35.4284C36.6093 9.85047 36.6093 9.85047 36.6093 10.4299C36.6093 10.4299 36.6093 11.0093 36.0189 11.0093H35.4284H34.8379H34.2474H33.657H34.2474C35.4284 11.5888 35.4284 11.5888 35.4284 11.5888C36.6093 12.1682 37.7903 12.1682 38.3808 12.7477C39.5617 13.9065 40.7427 14.486 41.3331 15.6449C41.3331 15.6449 41.3331 16.2243 41.9236 16.2243C41.9236 16.2243 41.9236 16.2243 42.5141 16.8037C43.1046 17.3832 43.6951 17.9626 44.876 18.5421C45.4665 19.1215 46.057 20.2804 47.2379 20.8598C47.2379 20.8598 47.2379 20.8598 47.8284 21.4393C47.8284 21.4393 47.8284 22.0187 48.4189 22.0187C49.0093 24.9159 49.5998 26.6542 50.1903 28.972C50.1903 30.1308 50.1903 31.2897 50.1903 32.4486C50.1903 33.6075 50.1903 34.7663 49.5998 35.9252C49.5998 37.6635 49.0093 39.9813 47.8284 41.7196C46.6474 43.4579 44.876 45.1963 43.1046 46.9346C40.1522 49.2523 37.1998 50.4112 33.657 50.9907V50.4112C33.657 49.8318 33.657 49.8318 33.0665 49.2523C33.0665 49.2523 33.0665 49.2523 32.476 49.2523C32.476 49.2523 32.476 49.2523 31.8855 49.2523H31.2951V49.8318C31.2951 49.8318 31.2951 50.4112 30.7046 50.4112H30.1141C30.1141 50.4112 30.7046 50.4112 30.7046 50.9907C30.7046 50.9907 30.7046 50.9907 31.2951 51.5701V52.1495H30.7046H30.1141H29.5236C28.9331 52.1495 28.9331 52.1495 28.3427 52.1495H27.7522H27.1617C27.1617 52.1495 27.1617 52.1495 26.5712 52.1495H25.9808H25.3903H24.7998H24.2093L23.6189 51.5701C23.6189 51.5701 23.6189 50.9907 23.0284 50.9907C23.0284 50.9907 23.0284 50.9907 23.0284 51.5701C23.0284 51.5701 23.0284 51.5701 23.6189 52.1495L24.2093 52.729C24.2093 52.729 24.2093 52.729 23.6189 52.729L23.0284 52.1495C23.0284 52.1495 22.4379 52.1495 22.4379 51.5701C22.4379 51.5701 21.8474 51.5701 21.8474 50.9907L22.4379 51.5701H21.8474H21.257H20.6665C20.6665 51.5701 20.076 51.5701 20.076 50.9907L19.4855 50.4112C19.4855 49.8318 18.8951 49.8318 18.8951 49.2523C18.8951 49.2523 18.8951 48.6729 18.3046 48.6729C18.3046 48.6729 18.3046 48.6729 17.7141 48.0935C17.7141 45.7757 17.7141 45.1963 17.7141 45.1963C17.7141 45.7757 18.3046 46.9346 18.8951 47.514C18.8951 47.514 18.3046 47.514 18.3046 46.9346C17.7141 46.9346 17.7141 46.3551 17.1236 46.3551C16.5331 45.7757 15.9427 45.1963 15.3522 44.6168L14.7617 44.0374L14.1712 42.8785L13.5808 42.2991C13.5808 41.7196 12.9903 41.7196 12.9903 41.1402C12.9903 41.1402 12.9903 40.5607 12.3998 40.5607C12.3998 39.9813 11.8093 39.4019 11.8093 39.4019V38.8224V38.243V37.6635V37.0841V36.5047V35.9252V35.3458C10.0379 33.028 9.44743 30.1308 10.0379 27.8131C10.0379 26.6542 10.0379 25.4953 10.6284 24.3364C10.6284 23.757 10.6284 23.757 10.6284 23.1776C10.6284 22.5981 10.6284 22.5981 11.2189 22.0187C11.2189 21.4393 11.2189 21.4393 11.8093 20.8598C11.8093 20.2804 11.8093 20.2804 12.3998 19.7009C12.3998 19.7009 12.3998 19.7009 12.3998 20.2804C12.3998 20.8598 11.8093 21.4393 11.8093 22.0187C11.8093 22.5981 11.2189 23.1776 11.2189 23.757C11.2189 24.3364 10.6284 24.9159 10.6284 25.4953C10.6284 26.0748 10.6284 26.6542 10.0379 27.2336C10.0379 27.8131 10.0379 28.3925 10.0379 28.972V29.5514C10.0379 29.5514 10.0379 29.5514 10.0379 30.1308V30.7103V31.2897C10.0379 31.2897 10.0379 31.2897 10.0379 31.8692V32.4486C10.0379 32.4486 10.0379 32.4486 10.0379 33.028V33.6075V34.1869C10.0379 34.1869 10.0379 34.1869 10.0379 34.7664C10.0379 37.0841 10.6284 38.8224 11.8093 41.1402C11.2189 40.5607 11.8093 41.7196 12.3998 42.2991C12.3998 42.8785 12.9903 43.4579 13.5808 43.4579L14.1712 44.0374L14.7617 44.6168C14.7617 45.7757 15.3522 46.3551 15.9427 46.9346C15.3522 46.9346 14.7617 45.7757 14.1712 45.1963C14.7617 46.3551 15.9427 47.514 17.1236 48.0935H16.5331L15.9427 47.514C15.3522 46.9346 15.3522 46.9346 14.7617 46.3551L15.3522 46.9346C15.3522 46.9346 15.3522 46.9346 15.3522 47.514C14.7617 46.9346 14.7617 46.3551 14.1712 45.7757C13.5808 45.1963 12.3998 44.0374 11.8093 43.4579C11.8093 42.8785 11.8093 42.8785 11.2189 42.2991C11.2189 42.2991 11.2189 42.2991 11.2189 41.7196C11.2189 41.7196 11.2189 41.7196 11.2189 41.1402C10.6284 41.1402 10.6284 40.5607 10.0379 40.5607C10.6284 41.7196 11.8093 42.2991 12.3998 43.4579C12.3998 43.4579 12.3998 44.0374 12.9903 44.0374C12.9903 44.0374 12.9903 44.6168 13.5808 44.6168L14.1712 45.1963C12.9903 44.0374 11.8093 42.8785 11.2189 41.1402C10.6284 39.9813 10.0379 38.243 9.44743 36.5047C9.44743 35.9252 8.85696 35.3458 8.85696 34.7664V34.1869V33.6075C8.85696 32.4486 8.85696 31.8692 8.85696 31.2897C8.85696 29.5514 8.85696 28.3925 9.44743 26.6542C9.44743 24.3364 10.0379 23.1776 10.6284 21.4393C11.8093 18.5421 13.5808 16.2243 15.9427 13.9065C15.9427 13.9065 16.5331 13.3271 15.9427 13.3271C15.9427 13.3271 15.9427 13.3271 16.5331 13.3271C16.5331 13.3271 16.5331 13.3271 17.1236 12.7477C17.1236 12.7477 17.7141 12.7477 17.7141 12.1682C17.7141 12.1682 18.3046 12.1682 18.3046 11.5888C18.3046 11.5888 18.8951 11.5888 18.8951 11.0093C18.8951 11.0093 18.8951 11.0093 18.3046 11.0093C17.7141 12.7477 16.5331 13.3271 15.9427 13.9065C15.9427 13.9065 15.3522 13.9065 15.3522 14.486C13.5808 16.2243 11.8093 18.5421 10.6284 20.8598C10.6284 20.2804 11.2189 20.2804 11.2189 19.7009C11.2189 19.1215 11.8093 19.1215 11.8093 18.5421V17.9626C11.8093 18.5421 11.2189 19.1215 10.6284 19.7009C11.2189 19.1215 11.8093 17.9626 12.3998 17.3832L12.9903 16.8037L13.5808 16.2243L12.9903 16.8037C12.9903 16.8037 12.9903 16.8037 12.9903 16.2243C13.5808 15.6449 14.1712 14.486 14.7617 13.9065C15.3522 13.3271 15.3522 13.3271 15.9427 12.7477L16.5331 12.1682L17.1236 11.5888C17.1236 11.5888 17.1236 11.5888 16.5331 11.5888L15.9427 12.1682L15.3522 12.7477C15.3522 12.7477 15.3522 12.7477 14.7617 12.7477H14.1712L13.5808 13.3271C14.1712 14.486 14.1712 15.0654 13.5808 15.0654L12.9903 15.6449L12.3998 16.2243L11.8093 16.8037C11.8093 17.3832 11.8093 17.3832 11.8093 17.9626H11.2189L11.8093 17.3832C11.8093 17.3832 11.8093 17.3832 11.8093 16.8037V16.2243L12.3998 15.6449L12.9903 15.0654C12.9903 15.0654 12.9903 15.0654 12.9903 14.486L13.5808 13.9065L14.1712 13.3271L14.7617 12.7477L15.3522 12.1682C15.3522 12.1682 15.3522 12.1682 15.9427 12.1682H16.5331L17.7141 11.5888L18.3046 11.0093H18.8951H19.4855L20.076 10.4299L20.6665 9.85047H21.257C21.257 9.85047 21.257 9.85047 21.8474 9.85047L22.4379 9.27103C22.4379 9.27103 23.0284 9.27103 23.0284 8.69159H23.6189C24.2093 8.69159 24.2093 8.69159 24.2093 8.11215ZM1.18077 32.4486C1.18077 31.8692 1.18077 31.8692 1.18077 31.2897C1.18077 31.2897 1.18077 31.8692 1.18077 32.4486V33.028V33.6075C1.18077 33.028 1.18077 33.028 1.18077 32.4486C1.18077 33.028 1.18077 33.028 1.18077 33.028C1.18077 33.028 1.18077 33.028 1.18077 32.4486ZM33.0665 60.8411C32.476 60.8411 32.476 60.8411 31.8855 60.8411H31.2951C30.7046 60.8411 30.7046 60.8411 30.1141 60.8411H29.5236C25.3903 60.8411 21.8474 60.2617 17.7141 57.9439H16.5331C16.5331 57.9439 15.9427 57.9439 15.9427 57.3645C17.1236 57.9439 18.8951 58.5234 20.076 58.5234H20.6665H21.257H20.6665H20.076C21.8474 59.1028 23.0284 59.6822 24.7998 59.6822C25.9808 59.6822 26.5712 59.6822 27.7522 59.6822C28.3427 59.6822 28.3427 59.6822 28.9331 59.6822C30.1141 60.8411 31.8855 60.8411 33.0665 60.8411Z" fill="#FF6D00"/>
</g>
<defs>
<clipPath id="clip0_146_2359">
<rect width="62" height="62" fill="none"/>
</clipPath>
</defs>
</svg>
